<svg width="24" height="24" viewBox="0 0 24 24" fill="none" xmlns="http://www.w3.org/2000/svg">
<path d="M16.242 17.242C15.8364 17.6477 15.3751 17.9935 14.872 18.269L15.833 20.023C16.8376 19.4722 17.7134 18.7137 18.402 17.798L16.802 16.597C16.6311 16.8252 16.4439 17.0407 16.242 17.242ZM17.985 12.571C18.0479 13.4299 17.9244 14.2923 17.623 15.099L19.496 15.8C19.8978 14.7242 20.0625 13.5743 19.979 12.429L17.985 12.571ZM19.497 10.203C19.094 9.12975 18.4663 8.155 17.656 7.344L16.242 8.758C16.8495 9.36732 17.3206 10.0988 17.624 10.904L19.497 10.203ZM11.369 18.966C11.322 18.961 11.275 18.951 11.228 18.945C11.0712 18.9255 10.9151 18.9005 10.76 18.87C9.87816 18.685 9.05015 18.3013 8.339 17.748C8.13392 17.5921 7.93918 17.4231 7.756 17.242C7.57137 17.0543 7.39902 16.8549 7.24 16.645C6.85856 16.1508 6.55784 15.5993 6.349 15.011C6.24365 14.7171 6.16108 14.4156 6.102 14.109C6.094 14.066 6.09 14.021 6.083 13.978C6.03017 13.6553 6.00242 13.329 6 13.002V13C6 11.397 6.624 9.891 7.758 8.758C8.63712 7.87575 9.77116 7.29194 11 7.089V10L16 6L11 2V5.069C9.23673 5.28355 7.59684 6.08483 6.344 7.344C5.59835 8.08446 5.00718 8.96564 4.6048 9.9364C4.20242 10.9072 3.99684 11.9482 4 12.999V13.008C4 13.261 4.014 13.512 4.037 13.761C4.044 13.837 4.058 13.911 4.067 13.988C4.088 14.16 4.111 14.333 4.143 14.504C4.162 14.604 4.187 14.7 4.209 14.799C4.241 14.941 4.274 15.082 4.314 15.222C4.346 15.334 4.384 15.445 4.421 15.555C4.447 15.634 4.468 15.714 4.497 15.792L4.505 15.789C4.77233 16.5034 5.14111 17.1757 5.6 17.785L5.593 17.79C5.614 17.818 5.642 17.843 5.663 17.871C5.874 18.143 6.096 18.409 6.344 18.656C6.64461 18.9524 6.96756 19.2252 7.31 19.472C7.575 19.664 7.847 19.844 8.131 20.001L8.159 20.02L8.16 20.019C8.82969 20.3861 9.54922 20.654 10.296 20.814L10.295 20.819L10.348 20.828C10.549 20.87 10.753 20.899 10.958 20.926C11.027 20.935 11.096 20.949 11.165 20.956C12.0109 21.0446 12.8656 20.9983 13.697 20.819L13.273 18.864C12.6476 18.9974 12.0051 19.0318 11.369 18.966Z" fill="white"/>
</svg>
